<mxfile host="app.diagrams.net" modified="2024-04-25T07:07:51.243Z" agent="Mozilla/5.0 (Windows NT 10.0; Win64; x64) AppleWebKit/537.36 (KHTML, like Gecko) Chrome/123.0.0.0 Safari/537.36" etag="OxAni8IK3_ndbd81BzmH" version="24.2.8" type="github">
  <diagram name="第 1 页" id="5Z2ohZtQrNZ-FupGpOf5">
    <mxGraphModel dx="1149" dy="674" grid="0" gridSize="10" guides="1" tooltips="1" connect="1" arrows="1" fold="1" page="1" pageScale="1" pageWidth="827" pageHeight="1169" math="0" shadow="0">
      <root>
        <mxCell id="0" />
        <mxCell id="1" parent="0" />
        <mxCell id="4CtgWXlGkwE0zDuLuQCC-2" value="" style="shape=curlyBracket;whiteSpace=wrap;html=1;rounded=1;labelPosition=left;verticalLabelPosition=middle;align=right;verticalAlign=middle;" vertex="1" parent="1">
          <mxGeometry x="210" y="118" width="21" height="251" as="geometry" />
        </mxCell>
        <mxCell id="4CtgWXlGkwE0zDuLuQCC-3" value="IO流" style="rounded=1;whiteSpace=wrap;html=1;fillColor=#f8cecc;strokeColor=#b85450;" vertex="1" parent="1">
          <mxGeometry x="134" y="229" width="64" height="29" as="geometry" />
        </mxCell>
        <mxCell id="4CtgWXlGkwE0zDuLuQCC-4" value="字节流" style="rounded=1;whiteSpace=wrap;html=1;fillColor=#f8cecc;strokeColor=#b85450;" vertex="1" parent="1">
          <mxGeometry x="241" y="104" width="64" height="29" as="geometry" />
        </mxCell>
        <mxCell id="4CtgWXlGkwE0zDuLuQCC-5" value="字符流" style="rounded=1;whiteSpace=wrap;html=1;fillColor=#f8cecc;strokeColor=#b85450;" vertex="1" parent="1">
          <mxGeometry x="241" y="355" width="64" height="29" as="geometry" />
        </mxCell>
        <mxCell id="4CtgWXlGkwE0zDuLuQCC-6" value="" style="shape=curlyBracket;whiteSpace=wrap;html=1;rounded=1;labelPosition=left;verticalLabelPosition=middle;align=right;verticalAlign=middle;" vertex="1" parent="1">
          <mxGeometry x="330" y="56" width="20" height="120" as="geometry" />
        </mxCell>
        <mxCell id="4CtgWXlGkwE0zDuLuQCC-7" value="" style="shape=curlyBracket;whiteSpace=wrap;html=1;rounded=1;labelPosition=left;verticalLabelPosition=middle;align=right;verticalAlign=middle;" vertex="1" parent="1">
          <mxGeometry x="322" y="309.5" width="20" height="120" as="geometry" />
        </mxCell>
        <mxCell id="4CtgWXlGkwE0zDuLuQCC-8" value="InputStream" style="rounded=1;whiteSpace=wrap;html=1;fillColor=#f8cecc;strokeColor=#b85450;" vertex="1" parent="1">
          <mxGeometry x="367" y="43" width="100" height="29" as="geometry" />
        </mxCell>
        <mxCell id="4CtgWXlGkwE0zDuLuQCC-9" value="OutputStream" style="rounded=1;whiteSpace=wrap;html=1;fillColor=#f8cecc;strokeColor=#b85450;" vertex="1" parent="1">
          <mxGeometry x="367" y="157" width="100" height="29" as="geometry" />
        </mxCell>
        <mxCell id="4CtgWXlGkwE0zDuLuQCC-10" value="Reader" style="rounded=1;whiteSpace=wrap;html=1;fillColor=#f8cecc;strokeColor=#b85450;" vertex="1" parent="1">
          <mxGeometry x="360" y="299" width="100" height="29" as="geometry" />
        </mxCell>
        <mxCell id="4CtgWXlGkwE0zDuLuQCC-11" value="Writer" style="rounded=1;whiteSpace=wrap;html=1;fillColor=#f8cecc;strokeColor=#b85450;" vertex="1" parent="1">
          <mxGeometry x="360" y="408" width="100" height="29" as="geometry" />
        </mxCell>
        <mxCell id="4CtgWXlGkwE0zDuLuQCC-12" value="" style="shape=curlyBracket;whiteSpace=wrap;html=1;rounded=1;labelPosition=left;verticalLabelPosition=middle;align=right;verticalAlign=middle;" vertex="1" parent="1">
          <mxGeometry x="480" y="18" width="19" height="74" as="geometry" />
        </mxCell>
        <mxCell id="4CtgWXlGkwE0zDuLuQCC-18" value="FileInputStream" style="rounded=1;whiteSpace=wrap;html=1;fillColor=#f8cecc;strokeColor=#b85450;" vertex="1" parent="1">
          <mxGeometry x="521" y="6" width="125" height="29" as="geometry" />
        </mxCell>
        <mxCell id="4CtgWXlGkwE0zDuLuQCC-19" value="BufferedInputStream" style="rounded=1;whiteSpace=wrap;html=1;fillColor=#f8cecc;strokeColor=#b85450;" vertex="1" parent="1">
          <mxGeometry x="521" y="72" width="125" height="29" as="geometry" />
        </mxCell>
        <mxCell id="4CtgWXlGkwE0zDuLuQCC-20" value="" style="shape=curlyBracket;whiteSpace=wrap;html=1;rounded=1;labelPosition=left;verticalLabelPosition=middle;align=right;verticalAlign=middle;" vertex="1" parent="1">
          <mxGeometry x="484" y="138" width="19" height="74" as="geometry" />
        </mxCell>
        <mxCell id="4CtgWXlGkwE0zDuLuQCC-21" value="" style="shape=curlyBracket;whiteSpace=wrap;html=1;rounded=1;labelPosition=left;verticalLabelPosition=middle;align=right;verticalAlign=middle;" vertex="1" parent="1">
          <mxGeometry x="484" y="276.5" width="19" height="74" as="geometry" />
        </mxCell>
        <mxCell id="4CtgWXlGkwE0zDuLuQCC-22" value="" style="shape=curlyBracket;whiteSpace=wrap;html=1;rounded=1;labelPosition=left;verticalLabelPosition=middle;align=right;verticalAlign=middle;" vertex="1" parent="1">
          <mxGeometry x="484" y="397" width="19" height="74" as="geometry" />
        </mxCell>
        <mxCell id="4CtgWXlGkwE0zDuLuQCC-23" value="FileOutputStream" style="rounded=1;whiteSpace=wrap;html=1;fillColor=#f8cecc;strokeColor=#b85450;" vertex="1" parent="1">
          <mxGeometry x="521" y="128" width="125" height="29" as="geometry" />
        </mxCell>
        <mxCell id="4CtgWXlGkwE0zDuLuQCC-24" value="BufferedOutputStream" style="rounded=1;whiteSpace=wrap;html=1;fillColor=#f8cecc;strokeColor=#b85450;" vertex="1" parent="1">
          <mxGeometry x="521" y="200" width="125" height="29" as="geometry" />
        </mxCell>
        <mxCell id="4CtgWXlGkwE0zDuLuQCC-25" value="FileReader" style="rounded=1;whiteSpace=wrap;html=1;fillColor=#f8cecc;strokeColor=#b85450;" vertex="1" parent="1">
          <mxGeometry x="521" y="261" width="125" height="29" as="geometry" />
        </mxCell>
        <mxCell id="4CtgWXlGkwE0zDuLuQCC-26" value="FileWriter" style="rounded=1;whiteSpace=wrap;html=1;fillColor=#f8cecc;strokeColor=#b85450;" vertex="1" parent="1">
          <mxGeometry x="521" y="384" width="125" height="29" as="geometry" />
        </mxCell>
        <mxCell id="4CtgWXlGkwE0zDuLuQCC-27" value="BufferedReader" style="rounded=1;whiteSpace=wrap;html=1;fillColor=#f8cecc;strokeColor=#b85450;" vertex="1" parent="1">
          <mxGeometry x="521" y="332" width="125" height="29" as="geometry" />
        </mxCell>
        <mxCell id="4CtgWXlGkwE0zDuLuQCC-28" value="BufferedWriter" style="rounded=1;whiteSpace=wrap;html=1;fillColor=#f8cecc;strokeColor=#b85450;" vertex="1" parent="1">
          <mxGeometry x="521" y="452" width="125" height="29" as="geometry" />
        </mxCell>
      </root>
    </mxGraphModel>
  </diagram>
</mxfile>
